<svg xmlns="http://www.w3.org/2000/svg" xmlns:xlink="http://www.w3.org/1999/xlink" width="139" height="27" viewBox="0 0 139 27">
  <defs>
    <clipPath id="clip-Custom_Size_4">
      <rect width="139" height="27"/>
    </clipPath>
  </defs>
  <g id="Custom_Size_4" data-name="Custom Size – 4" clip-path="url(#clip-Custom_Size_4)">
    <rect width="139" height="27" fill="#fff"/>
    <g id="Group_2" data-name="Group 2" transform="translate(-376.178 -306.884)">
      <g id="Group_6260" data-name="Group 6260" transform="translate(377.714 308.344)">
        <path id="Path_532" data-name="Path 532" d="M418.586,330.786l.006-.007.007-.01.006-.008.006-.01.005-.01,0-.009,0-.011,0-.008,0-.012,0-.009,0-.012,0-.011v-.01s0-.009,0-.013,0,0,0-.006v0c0-.005,0-.01,0-.015a.075.075,0,0,0,0-.008s0-.009,0-.013l0-.009,0-.011,0-.011,0-.008,0-.013,0-.007-.007-.013v0l-2.629-4.552h0l-.877-1.519h0l-1.755-3.037v0l-.876-1.517v0l-.877-1.517h0l-3.513-6.08,0,0-.007-.011-.006-.008-.007-.009-.008-.009-.007-.007-.009-.008-.007-.006-.01-.007-.008-.006-.009-.006-.01-.005-.009,0-.011,0-.008,0-.012,0-.009,0-.012,0-.011,0h-5.293a.225.225,0,0,0-.218.169l-7.037,0a.056.056,0,1,0,0,.113h0l7.037,0a.225.225,0,0,0,.218.169h5.132l.617,1.068-9.121,0a.225.225,0,0,0-.218.169h-2.549a.056.056,0,0,0,0,.113h2.549a.225.225,0,0,0,.218.169l9.381,0,.617,1.068-6.739,0a.225.225,0,0,0-.218.169l-6.686,0a.056.056,0,0,0,0,.113l6.686,0a.225.225,0,0,0,.218.169l7,0,.617,1.068-12.995,0a.226.226,0,0,0-.218.169h-4.457a.056.056,0,0,0,0,.113h4.457a.225.225,0,0,0,.218.169l13.255,0,.617,1.068-11.08,0a.226.226,0,0,0-.218.169l-5.853,0a.056.056,0,0,0,0,.113h0l5.853,0a.225.225,0,0,0,.218.169l11.34,0,.617,1.068-15.977,0a.225.225,0,0,0-.218.169h-4.465a.056.056,0,1,0,0,.113h4.469a.225.225,0,0,0,.218.169l16.237,0,.617,1.068-14.992,0a.225.225,0,0,0-.218.169h-4.732a.056.056,0,1,0,0,.113h4.732a.225.225,0,0,0,.218.169h4.467l-.616,1.068-7.831,0a.225.225,0,0,0-.218.169h-4.3a.056.056,0,0,0,0,.113h4.3a.225.225,0,0,0,.218.169l7.571,0-.616,1.068h-3.49a.226.226,0,0,0-.218.169l-5.969,0a.056.056,0,0,0,0,.113h0l5.969,0a.225.225,0,0,0,.218.169h3.23l-.616,1.068h-5.039a.225.225,0,0,0-.218.169h-4.779a.056.056,0,0,0,0,.113h4.779a.225.225,0,0,0,.218.169H399.6l-.616,1.068-7.363,0a.225.225,0,0,0-.218.169H387.2a.056.056,0,0,0,0,.113h4.209a.225.225,0,0,0,.218.169l7.1,0-.616,1.068h-4.255a.225.225,0,0,0-.218.169h-5.563a.056.056,0,0,0,0,.113l5.563,0a.225.225,0,0,0,.218.169h3.995l-.616,1.068-8.327,0a.225.225,0,0,0-.218.169h-1.85a.056.056,0,0,0,0,.113h1.853a.225.225,0,0,0,.218.169l8.457,0h.025l.019,0h0l.015,0,.006,0,.017-.006,0,0,.015-.007h0l.018-.011h0a.226.226,0,0,0,.047-.043h0a.222.222,0,0,0,.021-.03l5.065-8.778.679,1.175v0l.877,1.517v0l.876,1.517v0l.876,1.516,0,.006.874,1.513,0,.006.874,1.513,0,.006h0l.014.021,0,.005.006.008.007.008.005.006.013.011.006,0,.009.007.006,0,.014.008.008,0,.009,0,.009,0,.015.005.009,0,.011,0,.007,0,.018,0h.026l10.525,0h.024l.02,0h0l.017,0h.005l.017-.006.005,0,.012-.006.006,0h0l0,0,.011-.007.008-.006.009-.007.009-.008.007-.007Zm-10.566-.37-.617-1.068,10,0,.617,1.068Zm5-8.665.617,1.068-10,0-.617-1.068Zm.878,1.519.617,1.068-10,0-.617-1.068Zm.878,1.519.617,1.068-10,0-.617-1.068Zm.878,1.519.617,1.068-10,0-.617-1.068Zm.877,1.519.617,1.068-10,0-.617-1.068Z" transform="translate(-386.481 -312.057)" fill="#1b1c30"/>
        <g id="Group_6259" data-name="Group 6259">
          <g id="Group_6246" data-name="Group 6246" transform="translate(8.528)">
            <circle id="Ellipse_77" data-name="Ellipse 77" cx="0.359" cy="0.359" r="0.359" fill="#f39200"/>
          </g>
          <g id="Group_6247" data-name="Group 6247" transform="translate(9.644 1.519)">
            <circle id="Ellipse_78" data-name="Ellipse 78" cx="0.359" cy="0.359" r="0.359" fill="#f39200"/>
          </g>
          <g id="Group_6248" data-name="Group 6248" transform="translate(8.767 3.038)">
            <circle id="Ellipse_79" data-name="Ellipse 79" cx="0.359" cy="0.359" r="0.359" fill="#f39200"/>
          </g>
          <g id="Group_6249" data-name="Group 6249" transform="translate(5.618 4.558)">
            <circle id="Ellipse_80" data-name="Ellipse 80" cx="0.359" cy="0.359" r="0.359" fill="#f39200"/>
          </g>
          <g id="Group_6250" data-name="Group 6250" transform="translate(7.014 6.077)">
            <circle id="Ellipse_81" data-name="Ellipse 81" cx="0.359" cy="0.359" r="0.359" fill="#f39200"/>
          </g>
          <g id="Group_6251" data-name="Group 6251" transform="translate(4.383 7.597)">
            <circle id="Ellipse_82" data-name="Ellipse 82" cx="0.359" cy="0.359" r="0.359" fill="#f39200"/>
          </g>
          <g id="Group_6252" data-name="Group 6252" transform="translate(5.978 9.116)">
            <circle id="Ellipse_83" data-name="Ellipse 83" cx="0.359" cy="0.359" r="0.359" fill="#f39200"/>
          </g>
          <g id="Group_6253" data-name="Group 6253" transform="translate(2.424 10.636)">
            <circle id="Ellipse_84" data-name="Ellipse 84" cx="0.359" cy="0.359" r="0.359" fill="#f39200"/>
          </g>
          <g id="Group_6254" data-name="Group 6254" transform="translate(4.254 12.155)">
            <circle id="Ellipse_85" data-name="Ellipse 85" cx="0.359" cy="0.359" r="0.359" fill="#f39200"/>
          </g>
          <g id="Group_6255" data-name="Group 6255" transform="translate(2.989 13.674)">
            <circle id="Ellipse_86" data-name="Ellipse 86" cx="0.359" cy="0.359" r="0.359" fill="#f39200"/>
          </g>
          <g id="Group_6256" data-name="Group 6256" transform="translate(0.358 15.194)">
            <circle id="Ellipse_87" data-name="Ellipse 87" cx="0.359" cy="0.359" r="0.359" fill="#f39200"/>
          </g>
          <g id="Group_6257" data-name="Group 6257" transform="translate(1.235 16.713)">
            <circle id="Ellipse_88" data-name="Ellipse 88" cx="0.359" cy="0.359" r="0.359" fill="#f39200"/>
          </g>
          <g id="Group_6258" data-name="Group 6258" transform="translate(0 18.233)">
            <circle id="Ellipse_89" data-name="Ellipse 89" cx="0.359" cy="0.359" r="0.359" fill="#f39200"/>
          </g>
        </g>
      </g>
      <path id="Path_548" data-name="Path 548" d="M393.661,920.984l21.508-.005v4.649l-12.519,9.613,12.522,0V939.9l-21.509.006v-4.663l12.52-9.614-12.522,0Zm26.457-.007,6.624,0,0,6.937,9.167-6.94,9.028,0-11.106,8.4,11.111,10.517-8.26,0-7.434-7.049-2.5,1.906V939.9l-6.624,0Z" transform="translate(17.057 -612.612)" fill="#1b1c30"/>
      <path id="Path_549" data-name="Path 549" d="M1071.387,920.913h5.413l11.335,18.918-7.19,0-1.738-2.914-10.219,0-1.737,2.914-7.21,0Zm2.688,7.448-2.322,3.909h4.666Z" transform="translate(-584.832 -612.562)" fill="#f39200"/>
      <g id="Make_life_good_with_us" data-name="Make life good with us" transform="translate(377.714 331.869)" style="isolation: isolate">
        <text id="TRANSFORMING_YOUR_BUSINESS_WITH_AI" data-name="TRANSFORMING  YOUR BUSINESS WITH AI" transform="translate(0 1.015) rotate(-0.015)" font-size="4" font-family="ProductSans-Bold, Product Sans" font-weight="700" letter-spacing="0.417em" style="isolation: isolate"><tspan x="0" y="0" xml:space="preserve">TRANSFORMING  YOUR BUSINESS WITH AI</tspan></text>
      </g>
      <path id="Path_1" data-name="Path 1" d="M1285.331,920.872l6.624,0v2.139l-6.623,4.459Z" transform="translate(-778.318 -612.525)" fill="#1b1c30"/>
      <path id="Path_587" data-name="Path 587" d="M1285.349,973.332l0-10.544,6.624-2.867,0,13.409Z" transform="translate(-778.331 -646.065)" fill="#f39200"/>
    </g>
  </g>
</svg>
